<svg id="Layer_1" data-name="Layer 1" xmlns="http://www.w3.org/2000/svg" viewBox="0 0 1928.33 880.28"><defs><style>.cls-1{fill:#fff;}.cls-2{fill:none;stroke:#fff;stroke-miterlimit:10;stroke-width:26.72px;}</style></defs><title>ch-logo-air_clean</title><path class="cls-1" d="M193.29,591.12a82.15,82.15,0,0,1-8.4-26.08q-30.24,31.44-78.72,31.44-45.84,0-76-24.72A77.38,77.38,0,0,1,0,509.4q0-46.2,36.8-71t106.28-25h38.44V396.72a45.81,45.81,0,0,0-11.12-32.24q-11.1-12-35-12-21,0-33,9.4a31,31,0,0,0-12,25.8H6.93a74.5,74.5,0,0,1,16.76-46.76A109.67,109.67,0,0,1,71,307.16,184.15,184.15,0,0,1,139.61,295q57.72,0,91.6,27t33.88,76V524q0.44,41.36,12.44,62.52v4.56H193.29Zm-69-54a76,76,0,0,0,34-7.64,52.55,52.55,0,0,0,23.08-20.56v-50H150.29q-62.56,0-66.64,40.32l-0.28,4.56a30.26,30.26,0,0,0,11,24A44.52,44.52,0,0,0,124.33,537.08Z" transform="translate(0 -10.36)"/><path class="cls-1" d="M328.53,225a37,37,0,0,1,12.56-28.76Q353.62,185,375.25,185a49.33,49.33,0,0,1,34,11.28,39.16,39.16,0,0,1,2.47,55.33c-0.79.86-1.61,1.69-2.47,2.47a56.61,56.61,0,0,1-67.8,0A36.86,36.86,0,0,1,328.53,225Zm88.56,366.12H333.53V300.28h83.64Z" transform="translate(0 -10.36)"/><path class="cls-1" d="M661.09,373.12a242.79,242.79,0,0,0-30-2.16q-47.28,0-62,29.84V591.12H485.73V300.28h78.72L566.77,335q25.08-40,69.52-40a93.76,93.76,0,0,1,26,3.48Z" transform="translate(0 -10.36)"/><path class="cls-2" d="M1227.37,184.44a160.72,160.72,0,1,1,160.72,160.72H677" transform="translate(0 -10.36)"/><path class="cls-2" d="M1593.53,291.32A160.72,160.72,0,1,1,1754.25,452H677" transform="translate(0 -10.36)"/><path class="cls-2" d="M1389.29,716.56A160.72,160.72,0,1,0,1550,555.84H677" transform="translate(0 -10.36)"/></svg>