<?xml version="1.0" encoding="utf-8"?>
<!-- Generator: Adobe Illustrator 23.0.1, SVG Export Plug-In . SVG Version: 6.00 Build 0)  -->
<svg version="1.1" id="Layer_1" xmlns="http://www.w3.org/2000/svg" xmlns:xlink="http://www.w3.org/1999/xlink" x="0px" y="0px"
	 viewBox="0 0 1818 876" style="enable-background:new 0 0 1818 876;" xml:space="preserve">
<style type="text/css">
	.st0{fill:#FFFFFF;}
	.st1{fill-rule:evenodd;clip-rule:evenodd;fill:#FFFFFF;}
	.st2{fill:none;stroke:#FFFFFF;stroke-width:7.052;stroke-miterlimit:10;}
</style>
<g>
	<path class="st0" d="M199.08,558.64c-11.52,4-23.28,7.04-35.28,9.16s-23.8,3.16-35.44,3.16c-11.52,0-22.32-1.2-32.36-3.6
		c-10.04-2.4-19.16-5.88-27.4-10.44C49.76,546.2,34.96,531.2,24.16,512C13.36,492.76,8,471.76,8,448.92
		C8,412.4,19.16,383,41.48,360.68s51.72-33.48,88.24-33.48c10.48,0,21.56,1,33.12,3c11.56,2,23.64,5,36.2,9v53.92h-19.52
		l-5.32-31.84l-4.64-6.32c-6.72-3.08-13.28-5.36-19.68-6.84c-6.4-1.48-12.88-2.24-19.52-2.24c-26.48,0-47.48,9-63,27.04
		s-23.28,42.56-23.28,73.6c0,33,8.12,58.88,24.32,77.64s38.64,28.16,67.28,28.16c5.04,0,10.08-0.36,15.16-1.12s10.2-1.92,15.32-3.52
		l5.48-5.48l8.56-39.04h18.84v55.48H199.08z"/>
	<path class="st0" d="M311.8,364.08c12.56,0,24.24,2.16,35.08,6.48s20.72,10.8,29.64,19.4c9.96,9.68,17.52,21.08,22.64,34.24
		c5.12,13.12,7.68,27.64,7.68,43.56c0,10.92-1.24,21.24-3.72,30.92s-6.24,18.8-11.2,27.32c-8.32,14.28-19.56,25.44-33.64,33.44
		s-29.56,12-46.44,12c-12.56,0-24.36-2.16-35.44-6.48s-20.88-10.6-29.4-18.84c-9.96-9.68-17.52-21.12-22.64-34.36
		s-7.68-27.88-7.68-44c0-16,2.56-30.6,7.64-43.72s12.56-24.48,22.44-34.08c8.8-8.52,18.72-14.96,29.68-19.36
		C287.36,366.28,299.16,364.08,311.8,364.08z M311.8,380.04c-19.76,0-35.44,7.88-47.08,23.64s-17.48,37.12-17.48,64.08
		c0,26.84,5.88,48.24,17.6,64.12c11.76,15.92,27.4,23.88,46.96,23.88c19.36,0,34.88-8,46.6-23.96
		c11.68-15.96,17.56-37.32,17.56-64.08s-5.84-48.04-17.56-63.92C346.72,388,331.16,380.04,311.8,380.04z"/>
	<path class="st0" d="M431.96,566.72v-12.08l16.68-1.44l5.04-4.16v-162.2l-5.04-4.16l-19.12-1.72v-11.8h67.16
		c29.52,0,50.56,4.64,63.04,13.96c12.52,9.32,18.76,24.68,18.76,46.16c0,19.16-6.88,34.52-20.64,46
		c-13.76,11.52-32.28,17.24-55.6,17.24c-2.4,0-5.32-0.12-8.76-0.36s-7.88-0.6-13.24-1.08l-0.16,57.96l5.04,4.16l21,1.44v12.08
		H431.96z M480.12,476.84c5.36,0.56,9.52,1,12.44,1.24s5.28,0.36,7.12,0.36c16.76,0,29.56-4.28,38.32-12.8s13.16-20.88,13.16-37.12
		c0-15.64-4.52-27.16-13.6-34.64c-9.04-7.48-23.08-11.2-42.08-11.2c-4.04,0-7.12,0.04-9.28,0.16c-2.16,0.08-4.2,0.24-6.12,0.44
		v93.56H480.12z"/>
	<path class="st0" d="M599.28,566.72v-12.08l16.68-1.44l5.04-4.16v-162.2l-5.04-4.16l-19.12-1.72v-11.8H664
		c29.52,0,50.56,4.64,63.04,13.96c12.52,9.32,18.76,24.68,18.76,46.16c0,19.16-6.88,34.52-20.64,46
		c-13.76,11.52-32.28,17.24-55.6,17.24c-2.4,0-5.32-0.12-8.76-0.36c-3.44-0.24-7.88-0.6-13.24-1.08l-0.16,57.96l5.04,4.16l21,1.44
		v12.08H599.28z M647.44,476.84c5.36,0.56,9.52,1,12.44,1.24s5.28,0.36,7.12,0.36c16.76,0,29.56-4.28,38.32-12.8
		c8.76-8.52,13.16-20.88,13.16-37.12c0-15.64-4.52-27.16-13.6-34.64c-9.04-7.48-23.08-11.2-42.08-11.2c-4.04,0-7.12,0.04-9.28,0.16
		c-2.16,0.08-4.2,0.24-6.12,0.44v93.56H647.44z"/>
	<path class="st0" d="M766.6,566.72v-12.08l16.68-1.44l5.04-4.16v-162.2l-5.04-4.16l-16.68-1.72v-11.8h141.08v43h-16.52L887,387.12
		l-4.04-4.44H814.8v74.48h48.32l4.16-4.16l2.88-21.44h13.96v64.84h-13.96l-2.88-21.28l-4.16-4.44H814.8v82.56h78.96l4.16-4.76
		l5.04-29.76h15.24v48.04H766.6V566.72z"/>
	<path class="st0" d="M939.2,369.12h75.08c24.08,0,41.88,4.32,53.48,13c11.6,8.68,17.4,21.96,17.4,39.88c0,12.76-4,23.2-11.92,31.4
		c-7.96,8.2-19.84,14-35.68,17.44c7.4,2,13.56,4.64,18.56,7.84s8.92,7.24,11.8,12.04c3.24,5.28,6.04,13.04,8.32,23.24
		c2.32,10.2,4.12,17,5.48,20.36c2.96,8.08,7.04,13.56,12.24,16.48c5.16,2.92,13.84,4.4,26.04,4.4h2.6v11.2
		c-4.4,0.88-8.48,1.52-12.24,1.96c-3.72,0.44-7.28,0.64-10.64,0.64c-6.8,0-12.64-0.68-17.48-2.08c-4.84-1.4-8.92-3.52-12.28-6.4
		c-7-6.12-12.8-18.12-17.4-35.96c-1.72-6.44-3.12-11.2-4.16-14.36c-3.92-12-9.24-20.28-15.88-24.88c-6.68-4.6-16.76-6.92-30.28-6.92
		c-2.88,0-7.48,0.16-13.8,0.44l-1,0.16v70.04l5.04,4.16l16.84,1.44v12.08h-70.04v-12.08l16.68-1.44l5.04-4.16v-162.2l-5.04-4.16
		l-16.68-1.72v-11.84H939.2z M987.4,382.64v81.96c2.96,0.08,5.8,0.16,8.48,0.2c2.68,0.04,5.28,0.08,7.76,0.08
		c18.2,0,31.48-3.2,39.76-9.6s12.44-16.68,12.44-30.88c0-14.64-4.28-25.24-12.8-31.88s-22.32-9.92-41.4-9.92H987.4V382.64z"/>
	<path class="st0" d="M1146.04,331.48h85.08v14.04l-21.76,2.04l-6,4.96v82.68h120.68v-82.68l-6-4.96l-21.76-2.04v-14.04h85.24v14.04
		l-20.04,2.04l-6,4.96v193.12l6,4.96l20.04,1.72v14.36h-85.24v-14.36l21.76-1.72l6-4.96v-94.32H1203.4v94.32l6,4.96l21.76,1.72
		v14.36h-85.08v-14.36l19.88-1.72l6-4.96V352.52l-6-4.96l-19.88-2.04v-14.04H1146.04z"/>
	<path class="st0" d="M1406.96,566.72v-12.08l18.84-1.44l5.04-4.16v-162.2l-5.04-4.16l-18.84-1.72v-11.8h74.8v11.8l-18.84,1.72
		l-5.04,4.16v162.2l5.04,4.16l18.84,1.44v12.08H1406.96z"/>
	<path class="st0" d="M1508.8,566.72v-12.08l18.56-1.44l5.04-4.16v-162.2l-5.04-4.16l-18.56-1.72v-11.8h71.92v11.8l-16.84,1.72
		l-5.04,4.16V553.2h66.6l4.16-4.76l5.04-35.36h15.24v53.64L1508.8,566.72L1508.8,566.72z"/>
	<path class="st0" d="M1664.92,566.72v-12.08l18.56-1.44l5.04-4.16v-162.2l-5.04-4.16l-18.56-1.72v-11.8h71.92v11.8l-16.84,1.72
		l-5.04,4.16V553.2h66.6l4.16-4.76l5.04-35.36H1806v53.64L1664.92,566.72L1664.92,566.72z"/>
</g>
<polygon class="st1" points="814.4,81.2 814.4,91.96 806.2,100.12 806.2,73 "/>
<polygon class="st1" points="793.92,61.2 793.92,111.92 785.72,120.12 785.72,53 "/>
<polygon class="st1" points="773.92,41.24 773.92,132.4 765.72,140.6 765.72,33.04 "/>
<polygon class="st1" points="753.96,21.24 753.96,152.4 745.76,161.12 745.76,12.52 "/>
<polygon class="st1" points="733.96,23.28 733.96,173.4 725.76,173.4 725.76,32 "/>
<polygon class="st1" points="713.48,43.8 713.48,173.4 705.28,173.4 705.28,51.96 "/>
<polygon class="st1" points="693.48,63.76 693.48,173.4 685.28,173.4 685.28,72.48 "/>
<polygon class="st1" points="673.52,84.24 673.52,173.4 665.32,173.4 665.32,92.44 "/>
<polygon class="st1" points="653.52,104.24 653.52,173.4 645.32,173.4 645.32,112.96 "/>
<polygon class="st1" points="633.04,124.72 633.04,173.4 624.84,173.4 624.84,132.92 "/>
<polygon class="st1" points="613.04,144.72 613.04,173.4 604.84,173.4 604.84,152.92 "/>
<polygon class="st1" points="584.88,173.4 593.08,165.2 593.08,173.4 "/>
<polygon class="st1" points="998.84,80.68 1007.04,72.48 1007.04,102.72 998.84,94.52 "/>
<polygon class="st1" points="1018.84,60.68 1027.56,52.48 1027.56,122.68 1018.84,114.48 "/>
<polygon class="st1" points="1039.32,40.72 1047.52,32.52 1047.52,142.68 1039.32,134.48 "/>
<polygon class="st1" points="1059.32,20.72 1067.52,12 1067.52,163.16 1059.32,154.44 "/>
<polygon class="st1" points="1079.28,22.76 1079.28,172.88 1087.48,172.88 1087.48,31.48 "/>
<polygon class="st1" points="1099.28,43.28 1099.28,172.88 1107.96,172.88 1107.96,51.48 "/>
<polygon class="st1" points="1119.76,63.24 1119.76,172.88 1127.96,172.88 1127.96,71.96 "/>
<polygon class="st1" points="1139.76,83.76 1139.76,172.88 1147.96,172.88 1147.96,91.96 "/>
<polygon class="st1" points="1159.72,103.72 1159.72,172.88 1167.92,172.88 1167.92,112.44 "/>
<polygon class="st1" points="1179.72,124.2 1179.72,172.88 1188.4,172.88 1188.4,132.4 "/>
<polygon class="st1" points="1200.2,144.2 1200.2,172.88 1208.4,172.88 1208.4,152.4 "/>
<polygon class="st1" points="1228.4,172.88 1220.2,164.68 1220.2,172.88 "/>
<polygon class="st1" points="744.72,172.88 1064.96,172.88 905.08,12 "/>
<g>
	<path class="st0" d="M254.16,764.12c-5.36,1.88-10.88,3.28-16.44,4.28c-5.6,1-11.12,1.48-16.52,1.48s-10.4-0.56-15.08-1.68
		s-8.96-2.76-12.8-4.88c-8.8-5-15.68-12-20.72-20.96s-7.56-18.8-7.56-29.44c0-17.04,5.2-30.76,15.6-41.2
		c10.4-10.4,24.12-15.6,41.2-15.6c4.88,0,10.04,0.48,15.48,1.4c5.4,0.92,11.04,2.32,16.88,4.2v25.16h-9.12l-2.48-14.84l-2.16-2.96
		c-3.16-1.44-6.2-2.52-9.2-3.2c-3-0.68-6-1.04-9.12-1.04c-12.36,0-22.16,4.2-29.4,12.64c-7.24,8.4-10.88,19.88-10.88,34.36
		c0,15.4,3.8,27.48,11.36,36.24s18.04,13.16,31.4,13.16c2.36,0,4.72-0.16,7.08-0.52c2.36-0.36,4.76-0.88,7.16-1.64l2.56-2.56l4-18.2
		h8.8v25.8H254.16z"/>
	<path class="st0" d="M376.24,655.32c6.96,0,13.48,1.2,19.48,3.6s11.52,6,16.44,10.8c5.56,5.36,9.72,11.72,12.6,19
		c2.84,7.28,4.28,15.36,4.28,24.2c0,6.08-0.68,11.8-2.08,17.16c-1.4,5.4-3.48,10.44-6.24,15.2c-4.64,7.92-10.88,14.12-18.68,18.56
		c-7.84,4.44-16.44,6.68-25.8,6.68c-6.96,0-13.56-1.2-19.68-3.6c-6.16-2.4-11.6-5.88-16.32-10.48c-5.56-5.36-9.72-11.76-12.6-19.08
		c-2.84-7.36-4.28-15.48-4.28-24.44c0-8.88,1.4-17,4.24-24.28c2.84-7.28,6.96-13.6,12.48-18.92c4.88-4.76,10.4-8.32,16.48-10.76
		C362.64,656.52,369.24,655.32,376.24,655.32z M376.24,664.16c-10.96,0-19.68,4.36-26.16,13.16c-6.48,8.76-9.72,20.64-9.72,35.6
		c0,14.92,3.28,26.8,9.8,35.64c6.52,8.84,15.2,13.28,26.08,13.28c10.76,0,19.4-4.44,25.88-13.32s9.76-20.72,9.76-35.6
		s-3.24-26.68-9.76-35.52C395.64,668.6,387,664.16,376.24,664.16z"/>
	<path class="st0" d="M495.64,767.88v-6.72l10-1.28l2.96-3.12v-88.84l-2.96-2.32l-10.48-0.96v-6.56h30.76v4.08l55.84,83.8v-76.92
		l-2.96-2.96l-9.84-1.44v-6.56h34.36v6.56l-9.84,1.44l-2.96,2.96v98.84h-10.8l-62.32-92.92v81.8l2.96,3.12l9.84,1.28v6.72H495.64z"
		/>
	<path class="st0" d="M672.36,764.6v-28.76h9.68l1.92,18.76l2.16,2.8c2.4,1.24,5.12,2.16,8.24,2.8c3.08,0.64,6.44,0.96,10.08,0.96
		c7.6,0,13.64-1.76,18.08-5.32c4.44-3.52,6.68-8.32,6.68-14.36c0-8.36-7.84-15.88-23.48-22.52c-1.72-0.76-3-1.32-3.92-1.68
		c-11.2-4.84-18.6-9.36-22.2-13.56c-3.64-4.2-5.44-9.6-5.44-16.24c0-9.36,3.44-16.96,10.36-22.72c6.88-5.76,16.04-8.68,27.44-8.68
		c4.56,0,9.16,0.4,13.8,1.16c4.6,0.76,9.32,1.92,14.12,3.48v25.32h-8.56l-2.48-15.56l-2.4-2.72c-2.08-1.16-4.32-2.04-6.8-2.6
		c-2.44-0.56-5.12-0.84-8-0.84c-6.8,0-12.24,1.76-16.2,5.32c-4,3.56-6,8.36-6,14.44c0,4.44,1.4,8.08,4.2,11
		c2.8,2.92,9.04,6.4,18.72,10.52c0.92,0.36,2.28,0.92,4.08,1.6c9.52,3.72,16.4,7.68,20.6,11.84c2.4,2.36,4.2,5.04,5.4,8.08
		c1.2,3.04,1.8,6.32,1.8,9.92c0,9.84-3.84,17.8-11.6,23.84c-7.72,6.04-17.96,9.08-30.76,9.08c-5.68,0-11.08-0.44-16.08-1.36
		C680.68,767.6,676.24,766.32,672.36,764.6z"/>
	<path class="st0" d="M812.56,658.12h40.12v6.56l-10.16,0.96l-2.8,2.32v59.2c0,11.44,2.32,19.76,6.92,24.88
		c4.6,5.16,12.04,7.72,22.24,7.72c10.12,0,17.48-2.6,22.12-7.8c4.64-5.2,6.96-13.44,6.96-24.8v-58.08l-3.12-2.96l-9.84-1.44v-6.56
		h34.6v6.56l-9.84,1.44l-2.96,2.96v59.52c0,7.84-0.56,13.84-1.68,17.96c-1.12,4.16-2.96,7.76-5.52,10.88
		c-3.24,3.88-7.84,6.92-13.8,9.16s-12.64,3.32-20.08,3.32c-7.52,0-14.24-1.12-20.12-3.32s-10.48-5.24-13.76-9.16
		c-2.6-3.16-4.48-6.76-5.56-10.88c-1.08-4.12-1.64-10.08-1.64-17.96v-60.64l-2.8-2.32l-9.36-0.96v-6.56H812.56z"/>
	<path class="st0" d="M981.4,767.88v-6.72l10.32-0.8l2.8-2.32v-90.12l-2.8-2.32l-10.32-0.96v-6.56h39.96v6.56l-9.36,0.96l-2.8,2.32
		v92.44h37l2.32-2.64l2.8-19.64h8.48v29.8H981.4z"/>
	<path class="st0" d="M1106.36,658.12h92.44v25.16h-9.04l-2.24-15.16l-2.32-2.48h-25v92.44l2.72,2.32l11.04,0.8v6.72h-42.72v-6.72
		l10.96-0.8l2.8-2.32v-92.44h-25l-2.32,2.48l-2.32,15.16h-8.96v-25.16H1106.36z"/>
	<path class="st0" d="M1262.16,767.88v-6.72l10.48-0.8l2.8-2.32v-90.12l-2.8-2.32l-10.48-0.96v-6.56h41.56v6.56l-10.48,0.96
		l-2.8,2.32v90.12l2.8,2.32l10.48,0.8v6.72H1262.16z"/>
	<path class="st0" d="M1369.12,767.88v-6.72l10-1.28l2.96-3.12v-88.84l-2.96-2.32l-10.48-0.96v-6.56h30.76v4.08l55.84,83.8v-76.92
		l-2.96-2.96l-9.84-1.44v-6.56h34.36v6.56l-9.84,1.44l-2.96,2.96v98.84h-10.8l-62.32-92.92v81.8l2.96,3.12l9.84,1.28v6.72H1369.12z"
		/>
	<path class="st0" d="M1604.24,715.24h40.84v6.72l-9.04,0.8l-2.72,2.24v39.16c-6.6,1.92-12.72,3.36-18.32,4.32
		c-5.6,0.96-10.8,1.44-15.52,1.44c-5.44,0-10.52-0.56-15.28-1.68s-9.08-2.76-12.88-4.88c-8.8-5-15.68-12-20.72-20.92
		c-5.04-8.96-7.56-18.76-7.56-29.48c0-17.36,5.28-31.16,15.88-41.44c10.6-10.24,24.84-15.4,42.8-15.4c4.96,0,10.04,0.4,15.32,1.2
		c5.28,0.8,10.64,2,16.12,3.6v25.96h-9.12l-2.44-14.84l-2.32-2.96c-3.08-1.44-6.16-2.52-9.24-3.2c-3.04-0.68-6.2-1.04-9.4-1.04
		c-12.64,0-22.56,4.2-29.84,12.56c-7.28,8.36-10.92,19.84-10.92,34.44c0,15.28,3.76,27.32,11.32,36.16
		c7.56,8.8,17.76,13.24,30.72,13.24c2.48,0,5.16-0.16,7.96-0.52s5.72-0.88,8.76-1.64v-34.04l-2.8-2.24l-11.6-0.8L1604.24,715.24
		L1604.24,715.24z"/>
</g>
<line class="st2" x1="409.88" y1="268.72" x2="1393" y2="268.72"/>
<line class="st2" x1="409.88" y1="857.72" x2="1393" y2="857.72"/>
</svg>
